<svg width="75" height="75" viewBox="0 0 75 75" xmlns="http://www.w3.org/2000/svg" xmlns:xlink="http://www.w3.org/1999/xlink" id="Product_Icon" overflow="hidden"><defs><linearGradient x1="37.5" y1="-37.5" x2="37.5" y2="112.5" gradientUnits="userSpaceOnUse" id="OrangeGradient" gradientTransform="matrix(-0.707107 -0.707107 0.707107 -0.707107 37.5 90.53)"><stop offset="0" stop-color="#C8511B"/><stop offset="1" stop-color="#FF9900"/></linearGradient></defs><rect x="0" y="0" width="75" height="75" id="Orange_Gradient" fill="url(#OrangeGradient)"/><g id="Icon_Test"><path d="M37.29 64.44C37.1037 64.4436 36.9202 64.3951 36.76 64.3L14 51.18C13.6714 50.9903 13.4693 50.6394 13.47 50.26L13.47 23.68C13.4693 23.3006 13.6714 22.9497 14 22.76L34.93 10.7C35.3825 10.3834 36.006 10.4936 36.3226 10.9461 36.456 11.1368 36.5188 11.368 36.5 11.6L36.5 23.11C36.4985 23.4732 36.3094 23.8098 36 24L25.53 30 25.53 43.94 37.32 50.75 47.63 44.75C47.9394 44.5714 48.3206 44.5714 48.63 44.75L58.55 50.45C58.8786 50.6397 59.0807 50.9906 59.08 51.37 59.0903 51.7493 58.885 52.1018 58.55 52.28L37.8 64.28C37.6477 64.3786 37.4714 64.4339 37.29 64.44ZM15.5 49.54 37.83 62.43 57 51.35 49 46.74 38.37 52.88C38.0317 53.0707 37.6183 53.0707 37.28 52.88L24 45.22C23.673 45.0336 23.4708 44.6864 23.47 44.31L23.47 29.46C23.4597 29.0807 23.665 28.7282 24 28.55L34.47 22.55 34.47 13.37 15.47 24.37Z" fill="#FFFFFF"/><path d="M60.44 49C60.2545 48.9975 60.0725 48.9495 59.91 48.86L50 43.13C49.665 42.9518 49.4597 42.5993 49.47 42.22L49.47 30.11 39 24.07C38.673 23.8836 38.4708 23.5364 38.47 23.16L38.47 11.65C38.4616 11.2764 38.6621 10.9293 38.99 10.75 39.2994 10.5714 39.6806 10.5714 39.99 10.75L61 22.82C61.327 23.0064 61.5292 23.3536 61.53 23.73L61.53 47.9C61.5307 48.2794 61.3286 48.6303 61 48.82 60.8331 48.9297 60.6395 48.9919 60.44 49ZM51.5 41.55 59.5 46.15 59.5 24.4 40.5 13.4 40.5 22.53 51 28.61C51.335 28.7882 51.5403 29.1407 51.53 29.52Z" fill="#FFFFFF"/></g></svg>