<svg viewBox="0 0 75 75" xmlns="http://www.w3.org/2000/svg" xmlns:xlink="http://www.w3.org/1999/xlink" overflow="hidden"><defs><linearGradient x1="-142.53" y1="85.47" x2="-36.47" y2="191.53" gradientUnits="userSpaceOnUse" id="OrangeGradient" gradientTransform="matrix(0 -1 1 0 -101 -52)"><stop offset="0" stop-color="#C8511B"/><stop offset="1" stop-color="#FF9900"/></linearGradient></defs><g id="Reference"><rect x="0" y="0" width="75" height="75" id="Orange_Gradient" fill="url(#OrangeGradient)"/><g id="Icon_Test"><path d="M37.5 64.51C37.3248 64.5112 37.1524 64.4664 37 64.38L14 51.1C13.6894 50.9207 13.4986 50.5887 13.5 50.23L13.5 23.67C13.4986 23.3113 13.6894 22.9793 14 22.8L35 10.62C35.3094 10.4414 35.6906 10.4414 36 10.62 36.3106 10.7993 36.5014 11.1313 36.5 11.49L36.5 23C36.5014 23.3587 36.3106 23.6907 36 23.87L25.5 30 25.5 43.87 37.5 50.8 47.97 44.8C48.2794 44.6214 48.6606 44.6214 48.97 44.8L58.97 50.57C59.4505 50.8423 59.6193 51.4526 59.347 51.9331 59.2577 52.0905 59.1274 52.2208 58.97 52.31L38 64.38C37.8476 64.4664 37.6752 64.5112 37.5 64.51ZM15.5 49.65 37.5 62.36 56.5 51.36 48.5 46.74 38 52.83C37.6906 53.0086 37.3094 53.0086 37 52.83L24 45.32C23.6894 45.1407 23.4986 44.8087 23.5 44.45L23.5 29.45C23.4986 29.0913 23.6894 28.7593 24 28.58L34.5 22.47 34.5 13.22 15.5 24.22Z" fill="#FFFFFF"/><path d="M60.5 48.93C60.3248 48.9312 60.1524 48.8864 60 48.8L50 43.05C49.6855 42.88 49.507 42.5349 49.55 42.18L49.55 30 39 24C38.6894 23.8207 38.4986 23.4887 38.5 23.13L38.5 11.6C38.4986 11.2413 38.6894 10.9093 39 10.73 39.3124 10.5629 39.6876 10.5629 40 10.73L61 22.8C61.3106 22.9793 61.5014 23.3113 61.5 23.67L61.5 47.93C61.5 48.4823 61.0523 48.93 60.5 48.93ZM51.5 41.61 59.5 46.19 59.5 24.25 40.5 13.33 40.5 22.56 51 28.56C51.3075 28.7376 51.4979 29.0649 51.5 29.42Z" fill="#FFFFFF"/><path d="M32.5 44.49 32.5 29.49 34.5 29.49 34.5 36.32 41 29.49 43.64 29.49 36.86 36.79 44.23 44.49 41.5 44.49 34.5 37.49 34.5 44.49Z" fill="#FFFFFF"/></g></g></svg>